<svg xmlns="http://www.w3.org/2000/svg" viewBox="0 0 1366 768"><defs><style>.cls-1{fill:#a56021;}.cls-1,.cls-2,.cls-3,.cls-4,.cls-7,.cls-8,.cls-9{stroke:#000;}.cls-1,.cls-2,.cls-3,.cls-4,.cls-5,.cls-6,.cls-7,.cls-8,.cls-9{stroke-miterlimit:10;}.cls-1,.cls-2,.cls-3,.cls-4{stroke-width:2.15px;}.cls-2{fill:#fff;}.cls-3{fill:#3f1b01;}.cls-4{fill:#703809;}.cls-5,.cls-6{fill:none;}.cls-5{stroke:#683107;stroke-width:4.29px;}.cls-6{stroke:#6b340b;stroke-width:8.59px;}.cls-7{stroke-width:0.72px;}.cls-8{stroke-width:0.82px;}.cls-9{stroke-width:0.78px;}</style></defs><title>hang_man_2</title><g id="head"><path class="cls-1" d="M997.46,656.75l-8.59,73,15,2.15,4.29-4.29s98.75,2.15,109.49,4.29c0,0,15-68.7,19.32-70.85L1031.81,594.5H971.69Z"/><line class="cls-2" x1="1130.56" y1="663.19" x2="1001.75" y2="654.61"/><line class="cls-2" x1="1098.36" y1="639.58" x2="1001.75" y2="639.58"/><line class="cls-2" x1="1059.71" y1="615.96" x2="1001.75" y2="622.41"/><line class="cls-2" x1="1018.92" y1="658.9" x2="1003.9" y2="725.45"/><line class="cls-2" x1="1094.06" y1="658.9" x2="1010.34" y2="701.84"/><line class="cls-2" x1="1104.8" y1="680.37" x2="1018.92" y2="727.85"/><path class="cls-1" d="M1110.16,663.19s-18.25,62.26-11.81,64.4"/><path class="cls-1" d="M862.21,731.89l124.52-4.29,15-118.08-92.31-62.26H832.15l-6.44,128.81S862.21,723.31,862.21,731.89Z"/><polyline class="cls-1" points="862.21 725.45 862.21 598.79 998.53 607.91"/><line class="cls-2" x1="834.3" y1="581.62" x2="860.06" y2="598.79"/><line class="cls-2" x1="834.3" y1="615.96" x2="857.91" y2="635.29"/><line class="cls-2" x1="830" y1="650.31" x2="853.62" y2="673.93"/><line class="cls-2" x1="849.33" y1="590.2" x2="967.4" y2="590.2"/><line class="cls-2" x1="834.3" y1="570.88" x2="930.9" y2="566.59"/><line class="cls-2" x1="887.97" y1="607.38" x2="881.53" y2="725.45"/><line class="cls-2" x1="975.99" y1="609.52" x2="883.67" y2="701.84"/><line class="cls-2" x1="982.43" y1="624.55" x2="900.85" y2="725.45"/><path class="cls-1" d="M982.43,609.52v40.79s-8.59,15-4.29,30.06l-6.44,45.08"/><path class="cls-1" d="M413.52,547.27l453,8.59s4.29-12.88,0-15c0,0-51.52-45.08-55.82-66.55H465s-27.91,53.67-51.52,58C413.52,532.24,409.23,547.27,413.52,547.27Z"/><line class="cls-2" x1="417.81" y1="536.53" x2="857.91" y2="540.83"/><line class="cls-2" x1="836.44" y1="519.36" x2="714.08" y2="523.65"/><line class="cls-2" x1="529.45" y1="521.5" x2="439.28" y2="519.36"/><line class="cls-2" x1="495.1" y1="487.16" x2="546.62" y2="489.3"/><path class="cls-3" d="M535.89,504.33s90.17-49.38,208.24-6.44C744.13,497.89,709.78,558,535.89,504.33Z"/><path class="cls-1" d="M814.44,555.85l-12.34,176s21.47,4.29,23.62,0l8.59-176.65S816,551.56,814.44,555.85Z"/><path class="cls-1" d="M765.6,555.85l-4.29,88s-4.29,2.15-10.73,0l6.18-90.1Z"/><path class="cls-1" d="M435.55,547.68s3.73,182.06,8,184.21c0,0,2.15-6.44,19.32,2.15,0,0,6.44,6.44,21.47-2.15,0,0,12.88,0,15-6.44,0,0-30.06-154.57-15-171.75v-6.44S436.11,543.81,435.55,547.68Z"/><path class="cls-1" d="M509.58,549.09s-22.83,26.09-29.39,32.53l-.12,36.5s46.22-64.36,47.8-68.68C527.87,549.43,511.17,544.47,509.58,549.09Z"/><path class="cls-1" d="M596,29.88,482.22,165.13l2.15,15L600.29,44.91S600.29,34.17,596,29.88Z"/><path class="cls-1" d="M490.81,500s17.17-214.68,15-231.86c0,0-21.47-70.85-15-79.43,0,0-12.88-75.14-8.59-85.87,0,0-6.44-60.11,2.15-77.29,0,0-12.88-10.73-19.32-4.29a9.39,9.39,0,0,1-6.44,8.59s-2.15-2.15-4.29-8.59c0,0-6.44-8.59-8.59,2.15V64.23s10.73,115.93,6.44,124.52c0,0,2.15,40.79,2.15,53.67,0,0,2.15,249-8.59,257.62C445.72,500,482.22,510.77,490.81,500Z"/><path class="cls-1" d="M784.92,55.64s-38.64,8.59-49.38,4.29c0,0-4.29-2.15,8.59-12.88,0,0-2.15-10.73-15-6.44l-15,15s-268.35,15-276.94,10.73c0,0-17.17-4.29-19.32,15,0,0-4.29,8.59,2.15,10.73,0,0-4.29,4.29-4.29,6.44s0,6.44,6.44,8.59h19.32s81.58-6.44,94.46-8.59l208.24-4.29s38.64,2.15,45.08,4.29C789.21,98.58,797.8,70.67,784.92,55.64Z"/><line class="cls-2" x1="729.1" y1="72.82" x2="787.07" y2="68.52"/><path class="cls-4" d="M654,53.5s6.44,38.64,15,45.08c0,0,16.15,9.55,16.66-41.38,0,0,2.66,7,9.1-3.7l-6.44-6.44s12.88-17.17,23.62-17.17c0,0-6.44-17.17-19.32-10.73,0,0-10.73,15-12.88,23.62h-6.44V17s-15,0-15,4.29l6.44,25.76S654,49.2,654,53.5Z"/><path class="cls-2" d="M664.7,51.35s5.37,38.64,4.83,44"/><path class="cls-2" d="M674.36,95.9c-1.07-2.68,3.22-44.55,3.22-44.55"/><line class="cls-2" x1="677.58" y1="47.06" x2="681.87" y2="53.5"/><line class="cls-2" x1="679.73" y1="42.76" x2="688.31" y2="49.2"/><line class="cls-2" x1="673.29" y1="44.91" x2="666.84" y2="49.2"/><path class="cls-4" d="M559.5,51.35s17.17,45.08-4.29,55.82l6.44,4.29s27.91-19.32,4.29-58C565.94,53.5,563.8,44.91,559.5,51.35Z"/><path class="cls-4" d="M600.29,53.5S579.9,37.74,533.2,99.29c0,0-1.61,2.65,2.68,2,0,0,49.38-52.13,64.4-43.54C600.29,57.79,604.59,57.79,600.29,53.5Z"/><path class="cls-4" d="M443.57,53.5s45.08,27.91,45.08,47.23c0,0,0,8.59-6.44,6.44,0,0-38.64-51.52-42.94-49.38C439.28,57.79,441.43,51.35,443.57,53.5Z"/><path class="cls-4" d="M482.22,51.35s-30.06,60.11-42.94,62.26c0,0-2.15,4.29,6.44,6.44,0,0,53.67-42.94,53.67-51.52C499.39,68.52,499.39,44.91,482.22,51.35Z"/><path class="cls-4" d="M488.66,145.81l6.44,4s-32.6,84-41,82.91c0,0-10.54,5.39-8.39-3.19C445.72,229.54,493,145.81,488.66,145.81Z"/><path class="cls-4" d="M495.1,173.72s8.59,15,0,17.17c0,0-34.35-2.15-49.38,15,0,0-6.44,0,0-8.59C445.72,197.33,480.07,169.42,495.1,173.72Z"/><path class="cls-4" d="M669,98.58v81.58h4.29l.9-80.87S669,87.85,669,98.58Z"/><path class="cls-5" d="M638.94,167.28s12.88-4.29,34.35,19.32c0,0,40.79,19.32,27.91,49.38,0,0-6.44,30.06-40.79,23.62,0,0-27.91-6.44-12.88-40.79,0,0,6.44-23.62,17.17-34.35,0,0,6.44-10.73,17.17-8.59,0,0,19.32,0,19.32,4.29"/><path class="cls-6" d="M669,173.72S690.46,163,677.58,178c0,0,2.15,8.59-12.88,6.44C664.7,184.45,649.67,180.16,669,173.72Z"/><g id="head-2" data-name="head"><circle class="cls-7" cx="670.15" cy="221.57" r="41.12" transform="translate(-27.98 117.64) rotate(-9.83)"/></g></g><g id="boady"><path class="cls-1" d="M997.46,656.75l-8.59,73,15,2.15,4.29-4.29s98.75,2.15,109.49,4.29c0,0,15-68.7,19.32-70.85L1031.81,594.5H971.69Z"/><line class="cls-2" x1="1130.56" y1="663.19" x2="1001.75" y2="654.61"/><line class="cls-2" x1="1098.36" y1="639.58" x2="1001.75" y2="639.58"/><line class="cls-2" x1="1059.71" y1="615.96" x2="1001.75" y2="622.41"/><line class="cls-2" x1="1018.92" y1="658.9" x2="1003.9" y2="725.45"/><line class="cls-2" x1="1094.06" y1="658.9" x2="1010.34" y2="701.84"/><line class="cls-2" x1="1104.8" y1="680.37" x2="1018.92" y2="727.85"/><path class="cls-1" d="M1110.16,663.19s-18.25,62.26-11.81,64.4"/><path class="cls-1" d="M862.21,731.89l124.52-4.29,15-118.08-92.31-62.26H832.15l-6.44,128.81S862.21,723.31,862.21,731.89Z"/><polyline class="cls-1" points="862.21 725.45 862.21 598.79 998.53 607.91"/><line class="cls-2" x1="834.3" y1="581.62" x2="860.06" y2="598.79"/><line class="cls-2" x1="834.3" y1="615.96" x2="857.91" y2="635.29"/><line class="cls-2" x1="830" y1="650.31" x2="853.62" y2="673.93"/><line class="cls-2" x1="849.33" y1="590.2" x2="967.4" y2="590.2"/><line class="cls-2" x1="834.3" y1="570.88" x2="930.9" y2="566.59"/><line class="cls-2" x1="887.97" y1="607.38" x2="881.53" y2="725.45"/><line class="cls-2" x1="975.99" y1="609.52" x2="883.67" y2="701.84"/><line class="cls-2" x1="982.43" y1="624.55" x2="900.85" y2="725.45"/><path class="cls-1" d="M982.43,609.52v40.79s-8.59,15-4.29,30.06l-6.44,45.08"/><path class="cls-1" d="M413.52,547.27l453,8.59s4.29-12.88,0-15c0,0-51.52-45.08-55.82-66.55H465s-27.91,53.67-51.52,58C413.52,532.24,409.23,547.27,413.52,547.27Z"/><line class="cls-2" x1="417.81" y1="536.53" x2="857.91" y2="540.83"/><line class="cls-2" x1="836.44" y1="519.36" x2="714.08" y2="523.65"/><line class="cls-2" x1="529.45" y1="521.5" x2="439.28" y2="519.36"/><line class="cls-2" x1="495.1" y1="487.16" x2="546.62" y2="489.3"/><path class="cls-3" d="M535.89,504.33s90.17-49.38,208.24-6.44C744.13,497.89,709.78,558,535.89,504.33Z"/><path class="cls-1" d="M814.44,555.85l-12.34,176s21.47,4.29,23.62,0l8.59-176.65S816,551.56,814.44,555.85Z"/><path class="cls-1" d="M765.6,555.85l-4.29,88s-4.29,2.15-10.73,0l6.18-90.1Z"/><path class="cls-1" d="M435.55,547.68s3.73,182.06,8,184.21c0,0,2.15-6.44,19.32,2.15,0,0,6.44,6.44,21.47-2.15,0,0,12.88,0,15-6.44,0,0-30.06-154.57-15-171.75v-6.44S436.11,543.81,435.55,547.68Z"/><path class="cls-1" d="M509.58,549.09s-22.83,26.09-29.39,32.53l-.12,36.5s46.22-64.36,47.8-68.68C527.87,549.43,511.17,544.47,509.58,549.09Z"/><path class="cls-1" d="M596,29.88,482.22,165.13l2.15,15L600.29,44.91S600.29,34.17,596,29.88Z"/><path class="cls-1" d="M490.81,500s17.17-214.68,15-231.86c0,0-21.47-70.85-15-79.43,0,0-12.88-75.14-8.59-85.87,0,0-6.44-60.11,2.15-77.29,0,0-12.88-10.73-19.32-4.29a9.39,9.39,0,0,1-6.44,8.59s-2.15-2.15-4.29-8.59c0,0-6.44-8.59-8.59,2.15V64.23s10.73,115.93,6.44,124.52c0,0,2.15,40.79,2.15,53.67,0,0,2.15,249-8.59,257.62C445.72,500,482.22,510.77,490.81,500Z"/><path class="cls-1" d="M784.92,55.64s-38.64,8.59-49.38,4.29c0,0-4.29-2.15,8.59-12.88,0,0-2.15-10.73-15-6.44l-15,15s-268.35,15-276.94,10.73c0,0-17.17-4.29-19.32,15,0,0-4.29,8.59,2.15,10.73,0,0-4.29,4.29-4.29,6.44s0,6.44,6.44,8.59h19.32s81.58-6.44,94.46-8.59l208.24-4.29s38.64,2.15,45.08,4.29C789.21,98.58,797.8,70.67,784.92,55.64Z"/><line class="cls-2" x1="729.1" y1="72.82" x2="787.07" y2="68.52"/><path class="cls-4" d="M654,53.5s6.44,38.64,15,45.08c0,0,16.15,9.55,16.66-41.38,0,0,2.66,7,9.1-3.7l-6.44-6.44s12.88-17.17,23.62-17.17c0,0-6.44-17.17-19.32-10.73,0,0-10.73,15-12.88,23.62h-6.44V17s-15,0-15,4.29l6.44,25.76S654,49.2,654,53.5Z"/><path class="cls-2" d="M664.7,51.35s5.37,38.64,4.83,44"/><path class="cls-2" d="M674.36,95.9c-1.07-2.68,3.22-44.55,3.22-44.55"/><line class="cls-2" x1="677.58" y1="47.06" x2="681.87" y2="53.5"/><line class="cls-2" x1="679.73" y1="42.76" x2="688.31" y2="49.2"/><line class="cls-2" x1="673.29" y1="44.91" x2="666.84" y2="49.2"/><path class="cls-4" d="M559.5,51.35s17.17,45.08-4.29,55.82l6.44,4.29s27.91-19.32,4.29-58C565.94,53.5,563.8,44.91,559.5,51.35Z"/><path class="cls-4" d="M600.29,53.5S579.9,37.74,533.2,99.29c0,0-1.61,2.65,2.68,2,0,0,49.38-52.13,64.4-43.54C600.29,57.79,604.59,57.79,600.29,53.5Z"/><path class="cls-4" d="M443.57,53.5s45.08,27.91,45.08,47.23c0,0,0,8.59-6.44,6.44,0,0-38.64-51.52-42.94-49.38C439.28,57.79,441.43,51.35,443.57,53.5Z"/><path class="cls-4" d="M482.22,51.35s-30.06,60.11-42.94,62.26c0,0-2.15,4.29,6.44,6.44,0,0,53.67-42.94,53.67-51.52C499.39,68.52,499.39,44.91,482.22,51.35Z"/><path class="cls-4" d="M488.66,145.81l6.44,4s-32.6,84-41,82.91c0,0-10.54,5.39-8.39-3.19C445.72,229.54,493,145.81,488.66,145.81Z"/><path class="cls-4" d="M495.1,173.72s8.59,15,0,17.17c0,0-34.35-2.15-49.38,15,0,0-6.44,0,0-8.59C445.72,197.33,480.07,169.42,495.1,173.72Z"/><path class="cls-4" d="M669,98.58v81.58h4.29l.9-80.87S669,87.85,669,98.58Z"/><path class="cls-5" d="M638.94,167.28s12.88-4.29,34.35,19.32c0,0,40.79,19.32,27.91,49.38,0,0-6.44,30.06-40.79,23.62,0,0-27.91-6.44-12.88-40.79,0,0,6.44-23.62,17.17-34.35,0,0,6.44-10.73,17.17-8.59,0,0,19.32,0,19.32,4.29"/><path class="cls-6" d="M669,173.72S690.46,163,677.58,178c0,0,2.15,8.59-12.88,6.44C664.7,184.45,649.67,180.16,669,173.72Z"/><circle class="cls-7" cx="670.15" cy="221.57" r="41.12" transform="translate(-27.98 117.64) rotate(-9.83)"/><g id="boady-2" data-name="boady"><rect class="cls-8" x="648.5" y="254.5" width="45" height="114" rx="12" ry="12"/></g></g><g id="Rhand"><path class="cls-1" d="M997.46,655.75l-8.59,73,15,2.15,4.29-4.29s98.75,2.15,109.49,4.29c0,0,15-68.7,19.32-70.85L1031.81,593.5H971.69Z"/><line class="cls-2" x1="1130.56" y1="662.19" x2="1001.75" y2="653.61"/><line class="cls-2" x1="1098.36" y1="638.58" x2="1001.75" y2="638.58"/><line class="cls-2" x1="1059.71" y1="614.96" x2="1001.75" y2="621.41"/><line class="cls-2" x1="1018.92" y1="657.9" x2="1003.9" y2="724.45"/><line class="cls-2" x1="1094.06" y1="657.9" x2="1010.34" y2="700.84"/><line class="cls-2" x1="1104.8" y1="679.37" x2="1018.92" y2="726.85"/><path class="cls-1" d="M1110.16,662.19s-18.25,62.26-11.81,64.4"/><path class="cls-1" d="M862.21,730.89l124.52-4.29,15-118.08-92.31-62.26H832.15l-6.44,128.81S862.21,722.31,862.21,730.89Z"/><polyline class="cls-1" points="862.21 724.45 862.21 597.79 998.53 606.91"/><line class="cls-2" x1="834.3" y1="580.62" x2="860.06" y2="597.79"/><line class="cls-2" x1="834.3" y1="614.96" x2="857.91" y2="634.29"/><line class="cls-2" x1="830" y1="649.31" x2="853.62" y2="672.93"/><line class="cls-2" x1="849.33" y1="589.2" x2="967.4" y2="589.2"/><line class="cls-2" x1="834.3" y1="569.88" x2="930.9" y2="565.59"/><line class="cls-2" x1="887.97" y1="606.38" x2="881.53" y2="724.45"/><line class="cls-2" x1="975.99" y1="608.52" x2="883.67" y2="700.84"/><line class="cls-2" x1="982.43" y1="623.55" x2="900.85" y2="724.45"/><path class="cls-1" d="M982.43,608.52v40.79s-8.59,15-4.29,30.06l-6.44,45.08"/><path class="cls-1" d="M413.52,546.27l453,8.59s4.29-12.88,0-15c0,0-51.52-45.08-55.82-66.55H465s-27.91,53.67-51.52,58C413.52,531.24,409.23,546.27,413.52,546.27Z"/><line class="cls-2" x1="417.81" y1="535.53" x2="857.91" y2="539.83"/><line class="cls-2" x1="836.44" y1="518.36" x2="714.08" y2="522.65"/><line class="cls-2" x1="529.45" y1="520.5" x2="439.28" y2="518.36"/><line class="cls-2" x1="495.1" y1="486.16" x2="546.62" y2="488.3"/><path class="cls-3" d="M535.89,503.33s90.17-49.38,208.24-6.44C744.13,496.89,709.78,557,535.89,503.33Z"/><path class="cls-1" d="M814.44,554.85l-12.34,176s21.47,4.29,23.62,0l8.59-176.65S816,550.56,814.44,554.85Z"/><path class="cls-1" d="M765.6,554.85l-4.29,88s-4.29,2.15-10.73,0l6.18-90.1Z"/><path class="cls-1" d="M435.55,546.68s3.73,182.06,8,184.21c0,0,2.15-6.44,19.32,2.15,0,0,6.44,6.44,21.47-2.15,0,0,12.88,0,15-6.44,0,0-30.06-154.57-15-171.75v-6.44S436.11,542.81,435.55,546.68Z"/><path class="cls-1" d="M509.58,548.09s-22.83,26.09-29.39,32.53l-.12,36.5s46.22-64.36,47.8-68.68C527.87,548.43,511.17,543.47,509.58,548.09Z"/><path class="cls-1" d="M596,28.88,482.22,164.13l2.15,15L600.29,43.91S600.29,33.17,596,28.88Z"/><path class="cls-1" d="M490.81,499s17.17-214.68,15-231.86c0,0-21.47-70.85-15-79.43,0,0-12.88-75.14-8.59-85.87,0,0-6.44-60.11,2.15-77.29,0,0-12.88-10.73-19.32-4.29a9.39,9.39,0,0,1-6.44,8.59s-2.15-2.15-4.29-8.59c0,0-6.44-8.59-8.59,2.15V63.23s10.73,115.93,6.44,124.52c0,0,2.15,40.79,2.15,53.67,0,0,2.15,249-8.59,257.62C445.72,499,482.22,509.77,490.81,499Z"/><path class="cls-1" d="M784.92,54.64s-38.64,8.59-49.38,4.29c0,0-4.29-2.15,8.59-12.88,0,0-2.15-10.73-15-6.44l-15,15s-268.35,15-276.94,10.73c0,0-17.17-4.29-19.32,15,0,0-4.29,8.59,2.15,10.73,0,0-4.29,4.29-4.29,6.44s0,6.44,6.44,8.59h19.32s81.58-6.44,94.46-8.59l208.24-4.29s38.64,2.15,45.08,4.29C789.21,97.58,797.8,69.67,784.92,54.64Z"/><line class="cls-2" x1="729.1" y1="71.82" x2="787.07" y2="67.52"/><path class="cls-4" d="M654,52.5s6.44,38.64,15,45.08c0,0,16.15,9.55,16.66-41.38,0,0,2.66,7,9.1-3.7l-6.44-6.44s12.88-17.17,23.62-17.17c0,0-6.44-17.17-19.32-10.73,0,0-10.73,15-12.88,23.62h-6.44V16s-15,0-15,4.29l6.44,25.76S654,48.2,654,52.5Z"/><path class="cls-2" d="M664.7,50.35s5.37,38.64,4.83,44"/><path class="cls-2" d="M674.36,94.9c-1.07-2.68,3.22-44.55,3.22-44.55"/><line class="cls-2" x1="677.58" y1="46.06" x2="681.87" y2="52.5"/><line class="cls-2" x1="679.73" y1="41.76" x2="688.31" y2="48.2"/><line class="cls-2" x1="673.29" y1="43.91" x2="666.84" y2="48.2"/><path class="cls-4" d="M559.5,50.35s17.17,45.08-4.29,55.82l6.44,4.29s27.91-19.32,4.29-58C565.94,52.5,563.8,43.91,559.5,50.35Z"/><path class="cls-4" d="M600.29,52.5S579.9,36.74,533.2,98.29c0,0-1.61,2.65,2.68,2,0,0,49.38-52.13,64.4-43.54C600.29,56.79,604.59,56.79,600.29,52.5Z"/><path class="cls-4" d="M443.57,52.5s45.08,27.91,45.08,47.23c0,0,0,8.59-6.44,6.44,0,0-38.64-51.52-42.94-49.38C439.28,56.79,441.43,50.35,443.57,52.5Z"/><path class="cls-4" d="M482.22,50.35s-30.06,60.11-42.94,62.26c0,0-2.15,4.29,6.44,6.44,0,0,53.67-42.94,53.67-51.52C499.39,67.52,499.39,43.91,482.22,50.35Z"/><path class="cls-4" d="M488.66,144.81l6.44,4s-32.6,84-41,82.91c0,0-10.54,5.39-8.39-3.19C445.72,228.54,493,144.81,488.66,144.81Z"/><path class="cls-4" d="M495.1,172.72s8.59,15,0,17.17c0,0-34.35-2.15-49.38,15,0,0-6.44,0,0-8.59C445.72,196.33,480.07,168.42,495.1,172.72Z"/><path class="cls-4" d="M669,97.58v81.58h4.29l.9-80.87S669,86.85,669,97.58Z"/><path class="cls-5" d="M638.94,166.28s12.88-4.29,34.35,19.32c0,0,40.79,19.32,27.91,49.38,0,0-6.44,30.06-40.79,23.62,0,0-27.91-6.44-12.88-40.79,0,0,6.44-23.62,17.17-34.35,0,0,6.44-10.73,17.17-8.59,0,0,19.32,0,19.32,4.29"/><path class="cls-6" d="M669,172.72S690.46,162,677.58,177c0,0,2.15,8.59-12.88,6.44C664.7,183.45,649.67,179.16,669,172.72Z"/><circle class="cls-7" cx="670.15" cy="220.57" r="41.12" transform="translate(-27.81 117.62) rotate(-9.83)"/><rect class="cls-8" x="648.5" y="253.5" width="45" height="114" rx="12" ry="12"/><rect class="cls-8" x="591.5" y="292.5" width="83" height="13" rx="6.5" ry="6.5" transform="matrix(0.5, -0.87, 0.87, 0.5, 57.56, 697.69)"/></g><g id="Lhand"><path class="cls-1" d="M997.46,656.75l-8.59,73,15,2.15,4.29-4.29s98.75,2.15,109.49,4.29c0,0,15-68.7,19.32-70.85L1031.81,594.5H971.69Z"/><line class="cls-2" x1="1130.56" y1="663.19" x2="1001.75" y2="654.61"/><line class="cls-2" x1="1098.36" y1="639.58" x2="1001.75" y2="639.58"/><line class="cls-2" x1="1059.71" y1="615.96" x2="1001.75" y2="622.41"/><line class="cls-2" x1="1018.92" y1="658.9" x2="1003.9" y2="725.45"/><line class="cls-2" x1="1094.06" y1="658.9" x2="1010.34" y2="701.84"/><line class="cls-2" x1="1104.8" y1="680.37" x2="1018.92" y2="727.85"/><path class="cls-1" d="M1110.16,663.19s-18.25,62.26-11.81,64.4"/><path class="cls-1" d="M862.21,731.89l124.52-4.29,15-118.08-92.31-62.26H832.15l-6.44,128.81S862.21,723.31,862.21,731.89Z"/><polyline class="cls-1" points="862.21 725.45 862.21 598.79 998.53 607.91"/><line class="cls-2" x1="834.3" y1="581.62" x2="860.06" y2="598.79"/><line class="cls-2" x1="834.3" y1="615.96" x2="857.91" y2="635.29"/><line class="cls-2" x1="830" y1="650.31" x2="853.62" y2="673.93"/><line class="cls-2" x1="849.33" y1="590.2" x2="967.4" y2="590.2"/><line class="cls-2" x1="834.3" y1="570.88" x2="930.9" y2="566.59"/><line class="cls-2" x1="887.97" y1="607.38" x2="881.53" y2="725.45"/><line class="cls-2" x1="975.99" y1="609.52" x2="883.67" y2="701.84"/><line class="cls-2" x1="982.43" y1="624.55" x2="900.85" y2="725.45"/><path class="cls-1" d="M982.43,609.52v40.79s-8.59,15-4.29,30.06l-6.44,45.08"/><path class="cls-1" d="M413.52,547.27l453,8.59s4.29-12.88,0-15c0,0-51.52-45.08-55.82-66.55H465s-27.91,53.67-51.52,58C413.52,532.24,409.23,547.27,413.52,547.27Z"/><line class="cls-2" x1="417.81" y1="536.53" x2="857.91" y2="540.83"/><line class="cls-2" x1="836.44" y1="519.36" x2="714.08" y2="523.65"/><line class="cls-2" x1="529.45" y1="521.5" x2="439.28" y2="519.36"/><line class="cls-2" x1="495.1" y1="487.16" x2="546.62" y2="489.3"/><path class="cls-3" d="M535.89,504.33s90.17-49.38,208.24-6.44C744.13,497.89,709.78,558,535.89,504.33Z"/><path class="cls-1" d="M814.44,555.85l-12.34,176s21.47,4.29,23.62,0l8.59-176.65S816,551.56,814.44,555.85Z"/><path class="cls-1" d="M765.6,555.85l-4.29,88s-4.29,2.15-10.73,0l6.18-90.1Z"/><path class="cls-1" d="M435.55,547.68s3.73,182.06,8,184.21c0,0,2.15-6.44,19.32,2.15,0,0,6.44,6.44,21.47-2.15,0,0,12.88,0,15-6.44,0,0-30.06-154.57-15-171.75v-6.44S436.11,543.81,435.55,547.68Z"/><path class="cls-1" d="M509.58,549.09s-22.83,26.09-29.39,32.53l-.12,36.5s46.22-64.36,47.8-68.68C527.87,549.43,511.17,544.47,509.58,549.09Z"/><path class="cls-1" d="M596,29.88,482.22,165.13l2.15,15L600.29,44.91S600.29,34.17,596,29.88Z"/><path class="cls-1" d="M490.81,500s17.17-214.68,15-231.86c0,0-21.47-70.85-15-79.43,0,0-12.88-75.14-8.59-85.87,0,0-6.44-60.11,2.15-77.29,0,0-12.88-10.73-19.32-4.29a9.39,9.39,0,0,1-6.44,8.59s-2.15-2.15-4.29-8.59c0,0-6.44-8.59-8.59,2.15V64.23s10.73,115.93,6.44,124.52c0,0,2.15,40.79,2.15,53.67,0,0,2.15,249-8.59,257.62C445.72,500,482.22,510.77,490.81,500Z"/><path class="cls-1" d="M784.92,55.64s-38.64,8.59-49.38,4.29c0,0-4.29-2.15,8.59-12.88,0,0-2.15-10.73-15-6.44l-15,15s-268.35,15-276.94,10.73c0,0-17.17-4.29-19.32,15,0,0-4.29,8.59,2.15,10.73,0,0-4.29,4.29-4.29,6.44s0,6.44,6.44,8.59h19.32s81.58-6.44,94.46-8.59l208.24-4.29s38.64,2.15,45.08,4.29C789.21,98.58,797.8,70.67,784.92,55.64Z"/><line class="cls-2" x1="729.1" y1="72.82" x2="787.07" y2="68.52"/><path class="cls-4" d="M654,53.5s6.44,38.64,15,45.08c0,0,16.15,9.55,16.66-41.38,0,0,2.66,7,9.1-3.7l-6.44-6.44s12.88-17.17,23.62-17.17c0,0-6.44-17.17-19.32-10.73,0,0-10.73,15-12.88,23.62h-6.44V17s-15,0-15,4.29l6.44,25.76S654,49.2,654,53.5Z"/><path class="cls-2" d="M664.7,51.35s5.37,38.64,4.83,44"/><path class="cls-2" d="M674.36,95.9c-1.07-2.68,3.22-44.55,3.22-44.55"/><line class="cls-2" x1="677.58" y1="47.06" x2="681.87" y2="53.5"/><line class="cls-2" x1="679.73" y1="42.76" x2="688.31" y2="49.2"/><line class="cls-2" x1="673.29" y1="44.91" x2="666.84" y2="49.2"/><path class="cls-4" d="M559.5,51.35s17.17,45.08-4.29,55.82l6.44,4.29s27.91-19.32,4.29-58C565.94,53.5,563.8,44.91,559.5,51.35Z"/><path class="cls-4" d="M600.29,53.5S579.9,37.74,533.2,99.29c0,0-1.61,2.65,2.68,2,0,0,49.38-52.13,64.4-43.54C600.29,57.79,604.59,57.79,600.29,53.5Z"/><path class="cls-4" d="M443.57,53.5s45.08,27.91,45.08,47.23c0,0,0,8.59-6.44,6.44,0,0-38.64-51.52-42.94-49.38C439.28,57.79,441.43,51.35,443.57,53.5Z"/><path class="cls-4" d="M482.22,51.35s-30.06,60.11-42.94,62.26c0,0-2.15,4.29,6.44,6.44,0,0,53.67-42.94,53.67-51.52C499.39,68.52,499.39,44.91,482.22,51.35Z"/><path class="cls-4" d="M488.66,145.81l6.44,4s-32.6,84-41,82.91c0,0-10.54,5.39-8.39-3.19C445.72,229.54,493,145.81,488.66,145.81Z"/><path class="cls-4" d="M495.1,173.72s8.59,15,0,17.17c0,0-34.35-2.15-49.38,15,0,0-6.44,0,0-8.59C445.72,197.33,480.07,169.42,495.1,173.72Z"/><path class="cls-4" d="M669,98.58v81.58h4.29l.9-80.87S669,87.85,669,98.58Z"/><path class="cls-5" d="M638.94,167.28s12.88-4.29,34.35,19.32c0,0,40.79,19.32,27.91,49.38,0,0-6.44,30.06-40.79,23.62,0,0-27.91-6.44-12.88-40.79,0,0,6.44-23.62,17.17-34.35,0,0,6.44-10.73,17.17-8.59,0,0,19.32,0,19.32,4.29"/><path class="cls-6" d="M669,173.72S690.46,163,677.58,178c0,0,2.15,8.59-12.88,6.44C664.7,184.45,649.67,180.16,669,173.72Z"/><circle class="cls-7" cx="670.15" cy="221.57" r="41.12" transform="translate(-27.98 117.64) rotate(-9.83)"/><rect class="cls-8" x="648.5" y="254.5" width="45" height="114" rx="12" ry="12"/><rect class="cls-8" x="591.5" y="293.5" width="83" height="13" rx="6.5" ry="6.5" transform="translate(56.69 698.19) rotate(-60)"/><g id="Lhand-2" data-name="Lhand"><rect class="cls-9" x="666.61" y="287.75" width="93.47" height="12.52" rx="6.26" ry="6.26" transform="translate(500.05 -447.48) rotate(51.55)"/></g></g><g id="Rleg"><path class="cls-1" d="M997.46,655.75l-8.59,73,15,2.15,4.29-4.29s98.75,2.15,109.49,4.29c0,0,15-68.7,19.32-70.85L1031.81,593.5H971.69Z"/><line class="cls-2" x1="1130.56" y1="662.19" x2="1001.75" y2="653.61"/><line class="cls-2" x1="1098.36" y1="638.58" x2="1001.75" y2="638.58"/><line class="cls-2" x1="1059.71" y1="614.96" x2="1001.75" y2="621.41"/><line class="cls-2" x1="1018.92" y1="657.9" x2="1003.9" y2="724.45"/><line class="cls-2" x1="1094.06" y1="657.9" x2="1010.34" y2="700.84"/><line class="cls-2" x1="1104.8" y1="679.37" x2="1018.92" y2="726.85"/><path class="cls-1" d="M1110.16,662.19s-18.25,62.26-11.81,64.4"/><path class="cls-1" d="M862.21,730.89l124.52-4.29,15-118.08-92.31-62.26H832.15l-6.44,128.81S862.21,722.31,862.21,730.89Z"/><polyline class="cls-1" points="862.21 724.45 862.21 597.79 998.53 606.91"/><line class="cls-2" x1="834.3" y1="580.62" x2="860.06" y2="597.79"/><line class="cls-2" x1="834.3" y1="614.96" x2="857.91" y2="634.29"/><line class="cls-2" x1="830" y1="649.31" x2="853.62" y2="672.93"/><line class="cls-2" x1="849.33" y1="589.2" x2="967.4" y2="589.2"/><line class="cls-2" x1="834.3" y1="569.88" x2="930.9" y2="565.59"/><line class="cls-2" x1="887.97" y1="606.38" x2="881.53" y2="724.45"/><line class="cls-2" x1="975.99" y1="608.52" x2="883.67" y2="700.84"/><line class="cls-2" x1="982.43" y1="623.55" x2="900.85" y2="724.45"/><path class="cls-1" d="M982.43,608.52v40.79s-8.59,15-4.29,30.06l-6.44,45.08"/><path class="cls-1" d="M413.52,546.27l453,8.59s4.29-12.88,0-15c0,0-51.52-45.08-55.82-66.55H465s-27.91,53.67-51.52,58C413.52,531.24,409.23,546.27,413.52,546.27Z"/><line class="cls-2" x1="417.81" y1="535.53" x2="857.91" y2="539.83"/><line class="cls-2" x1="836.44" y1="518.36" x2="714.08" y2="522.65"/><line class="cls-2" x1="529.45" y1="520.5" x2="439.28" y2="518.36"/><line class="cls-2" x1="495.1" y1="486.16" x2="546.62" y2="488.3"/><path class="cls-3" d="M535.89,503.33s90.17-49.38,208.24-6.44C744.13,496.89,709.78,557,535.89,503.33Z"/><path class="cls-1" d="M814.44,554.85l-12.34,176s21.47,4.29,23.62,0l8.59-176.65S816,550.56,814.44,554.85Z"/><path class="cls-1" d="M765.6,554.85l-4.29,88s-4.29,2.15-10.73,0l6.18-90.1Z"/><path class="cls-1" d="M435.55,546.68s3.73,182.06,8,184.21c0,0,2.15-6.44,19.32,2.15,0,0,6.44,6.44,21.47-2.15,0,0,12.88,0,15-6.44,0,0-30.06-154.57-15-171.75v-6.44S436.11,542.81,435.55,546.68Z"/><path class="cls-1" d="M509.58,548.09s-22.83,26.09-29.39,32.53l-.12,36.5s46.22-64.36,47.8-68.68C527.87,548.43,511.17,543.47,509.58,548.09Z"/><path class="cls-1" d="M596,28.88,482.22,164.13l2.15,15L600.29,43.91S600.29,33.17,596,28.88Z"/><path class="cls-1" d="M490.81,499s17.17-214.68,15-231.86c0,0-21.47-70.85-15-79.43,0,0-12.88-75.14-8.59-85.87,0,0-6.44-60.11,2.15-77.29,0,0-12.88-10.73-19.32-4.29a9.39,9.39,0,0,1-6.44,8.59s-2.15-2.15-4.29-8.59c0,0-6.44-8.59-8.59,2.15V63.23s10.73,115.93,6.44,124.52c0,0,2.15,40.79,2.15,53.67,0,0,2.15,249-8.59,257.62C445.72,499,482.22,509.77,490.81,499Z"/><path class="cls-1" d="M784.92,54.64s-38.64,8.59-49.38,4.29c0,0-4.29-2.15,8.59-12.88,0,0-2.15-10.73-15-6.44l-15,15s-268.35,15-276.94,10.73c0,0-17.17-4.29-19.32,15,0,0-4.29,8.59,2.15,10.73,0,0-4.29,4.29-4.29,6.44s0,6.44,6.44,8.59h19.32s81.58-6.44,94.46-8.59l208.24-4.29s38.64,2.15,45.08,4.29C789.21,97.58,797.8,69.67,784.92,54.64Z"/><line class="cls-2" x1="729.1" y1="71.82" x2="787.07" y2="67.52"/><path class="cls-4" d="M654,52.5s6.44,38.64,15,45.08c0,0,16.15,9.55,16.66-41.38,0,0,2.66,7,9.1-3.7l-6.44-6.44s12.88-17.17,23.62-17.17c0,0-6.44-17.17-19.32-10.73,0,0-10.73,15-12.88,23.62h-6.44V16s-15,0-15,4.29l6.44,25.76S654,48.2,654,52.5Z"/><path class="cls-2" d="M664.7,50.35s5.37,38.64,4.83,44"/><path class="cls-2" d="M674.36,94.9c-1.07-2.68,3.22-44.55,3.22-44.55"/><line class="cls-2" x1="677.58" y1="46.06" x2="681.87" y2="52.5"/><line class="cls-2" x1="679.73" y1="41.76" x2="688.31" y2="48.2"/><line class="cls-2" x1="673.29" y1="43.91" x2="666.84" y2="48.2"/><path class="cls-4" d="M559.5,50.35s17.17,45.08-4.29,55.82l6.44,4.29s27.91-19.32,4.29-58C565.94,52.5,563.8,43.91,559.5,50.35Z"/><path class="cls-4" d="M600.29,52.5S579.9,36.74,533.2,98.29c0,0-1.61,2.65,2.68,2,0,0,49.38-52.13,64.4-43.54C600.29,56.79,604.59,56.79,600.29,52.5Z"/><path class="cls-4" d="M443.57,52.5s45.08,27.91,45.08,47.23c0,0,0,8.59-6.44,6.44,0,0-38.64-51.52-42.94-49.38C439.28,56.79,441.43,50.35,443.57,52.5Z"/><path class="cls-4" d="M482.22,50.35s-30.06,60.11-42.94,62.26c0,0-2.15,4.29,6.44,6.44,0,0,53.67-42.94,53.67-51.52C499.39,67.52,499.39,43.91,482.22,50.35Z"/><path class="cls-4" d="M488.66,144.81l6.44,4s-32.6,84-41,82.91c0,0-10.54,5.39-8.39-3.19C445.72,228.54,493,144.81,488.66,144.81Z"/><path class="cls-4" d="M495.1,172.72s8.59,15,0,17.17c0,0-34.35-2.15-49.38,15,0,0-6.44,0,0-8.59C445.72,196.33,480.07,168.42,495.1,172.72Z"/><path class="cls-4" d="M669,97.58v81.58h4.29l.9-80.87S669,86.85,669,97.58Z"/><path class="cls-5" d="M638.94,166.28s12.88-4.29,34.35,19.32c0,0,40.79,19.32,27.91,49.38,0,0-6.44,30.06-40.79,23.62,0,0-27.91-6.44-12.88-40.79,0,0,6.44-23.62,17.17-34.35,0,0,6.44-10.73,17.17-8.59,0,0,19.32,0,19.32,4.29"/><path class="cls-6" d="M669,172.72S690.46,162,677.58,177c0,0,2.15,8.59-12.88,6.44C664.7,183.45,649.67,179.16,669,172.72Z"/><circle class="cls-7" cx="670.15" cy="220.57" r="41.12" transform="translate(-27.81 117.62) rotate(-9.83)"/><rect class="cls-8" x="648.5" y="253.5" width="45" height="114" rx="12" ry="12"/><rect class="cls-8" x="591.5" y="292.5" width="83" height="13" rx="6.5" ry="6.5" transform="translate(57.56 697.69) rotate(-60)"/><rect class="cls-9" x="666.61" y="286.75" width="93.47" height="12.52" rx="6.26" ry="6.26" transform="translate(499.27 -447.86) rotate(51.55)"/><g id="Rleg-2" data-name="Rleg"><rect class="cls-9" x="631.5" y="354.5" width="22" height="90" rx="11" ry="11" transform="translate(157.1 -180.84) rotate(18.22)"/></g></g><g id="Lleg"><path class="cls-1" d="M997.46,655.75l-8.59,73,15,2.15,4.29-4.29s98.75,2.15,109.49,4.29c0,0,15-68.7,19.32-70.85L1031.81,593.5H971.69Z"/><line class="cls-2" x1="1130.56" y1="662.19" x2="1001.75" y2="653.61"/><line class="cls-2" x1="1098.36" y1="638.58" x2="1001.75" y2="638.58"/><line class="cls-2" x1="1059.71" y1="614.96" x2="1001.75" y2="621.41"/><line class="cls-2" x1="1018.92" y1="657.9" x2="1003.9" y2="724.45"/><line class="cls-2" x1="1094.06" y1="657.9" x2="1010.34" y2="700.84"/><line class="cls-2" x1="1104.8" y1="679.37" x2="1018.92" y2="726.85"/><path class="cls-1" d="M1110.16,662.19s-18.25,62.26-11.81,64.4"/><path class="cls-1" d="M862.21,730.89l124.52-4.29,15-118.08-92.31-62.26H832.15l-6.44,128.81S862.21,722.31,862.21,730.89Z"/><polyline class="cls-1" points="862.21 724.45 862.21 597.79 998.53 606.91"/><line class="cls-2" x1="834.3" y1="580.62" x2="860.06" y2="597.79"/><line class="cls-2" x1="834.3" y1="614.96" x2="857.91" y2="634.29"/><line class="cls-2" x1="830" y1="649.31" x2="853.62" y2="672.93"/><line class="cls-2" x1="849.33" y1="589.2" x2="967.4" y2="589.2"/><line class="cls-2" x1="834.3" y1="569.88" x2="930.9" y2="565.59"/><line class="cls-2" x1="887.97" y1="606.38" x2="881.53" y2="724.45"/><line class="cls-2" x1="975.99" y1="608.52" x2="883.67" y2="700.84"/><line class="cls-2" x1="982.43" y1="623.55" x2="900.85" y2="724.45"/><path class="cls-1" d="M982.43,608.52v40.79s-8.59,15-4.29,30.06l-6.44,45.08"/><path class="cls-1" d="M413.52,546.27l453,8.59s4.29-12.88,0-15c0,0-51.52-45.08-55.82-66.55H465s-27.91,53.67-51.52,58C413.52,531.24,409.23,546.27,413.52,546.27Z"/><line class="cls-2" x1="417.81" y1="535.53" x2="857.91" y2="539.83"/><line class="cls-2" x1="836.44" y1="518.36" x2="714.08" y2="522.65"/><line class="cls-2" x1="529.45" y1="520.5" x2="439.28" y2="518.36"/><line class="cls-2" x1="495.1" y1="486.16" x2="546.62" y2="488.3"/><path class="cls-3" d="M535.89,503.33s90.17-49.38,208.24-6.44C744.13,496.89,709.78,557,535.89,503.33Z"/><path class="cls-1" d="M814.44,554.85l-12.34,176s21.47,4.29,23.62,0l8.59-176.65S816,550.56,814.44,554.85Z"/><path class="cls-1" d="M765.6,554.85l-4.29,88s-4.29,2.15-10.73,0l6.18-90.1Z"/><path class="cls-1" d="M435.55,546.68s3.73,182.06,8,184.21c0,0,2.15-6.44,19.32,2.15,0,0,6.44,6.44,21.47-2.15,0,0,12.88,0,15-6.44,0,0-30.06-154.57-15-171.75v-6.44S436.11,542.81,435.55,546.68Z"/><path class="cls-1" d="M509.58,548.09s-22.83,26.09-29.39,32.53l-.12,36.5s46.22-64.36,47.8-68.68C527.87,548.43,511.17,543.47,509.58,548.09Z"/><path class="cls-1" d="M596,28.88,482.22,164.13l2.15,15L600.29,43.91S600.29,33.17,596,28.88Z"/><path class="cls-1" d="M490.81,499s17.17-214.68,15-231.86c0,0-21.47-70.85-15-79.43,0,0-12.88-75.14-8.59-85.87,0,0-6.44-60.11,2.15-77.29,0,0-12.88-10.73-19.32-4.29a9.39,9.39,0,0,1-6.44,8.59s-2.15-2.15-4.29-8.59c0,0-6.44-8.59-8.59,2.15V63.23s10.73,115.93,6.44,124.52c0,0,2.15,40.79,2.15,53.67,0,0,2.15,249-8.59,257.62C445.72,499,482.22,509.77,490.81,499Z"/><path class="cls-1" d="M784.92,54.64s-38.64,8.59-49.38,4.29c0,0-4.29-2.15,8.59-12.88,0,0-2.15-10.73-15-6.44l-15,15s-268.35,15-276.94,10.73c0,0-17.17-4.29-19.32,15,0,0-4.29,8.59,2.15,10.73,0,0-4.29,4.29-4.29,6.44s0,6.44,6.44,8.59h19.32s81.58-6.44,94.46-8.59l208.24-4.29s38.64,2.15,45.08,4.29C789.21,97.58,797.8,69.67,784.92,54.64Z"/><line class="cls-2" x1="729.1" y1="71.82" x2="787.07" y2="67.52"/><path class="cls-4" d="M654,52.5s6.44,38.64,15,45.08c0,0,16.15,9.55,16.66-41.38,0,0,2.66,7,9.1-3.7l-6.44-6.44s12.88-17.17,23.62-17.17c0,0-6.44-17.17-19.32-10.73,0,0-10.73,15-12.88,23.62h-6.44V16s-15,0-15,4.29l6.44,25.76S654,48.2,654,52.5Z"/><path class="cls-2" d="M664.7,50.35s5.37,38.64,4.83,44"/><path class="cls-2" d="M674.36,94.9c-1.07-2.68,3.22-44.55,3.22-44.55"/><line class="cls-2" x1="677.58" y1="46.06" x2="681.87" y2="52.5"/><line class="cls-2" x1="679.73" y1="41.76" x2="688.31" y2="48.2"/><line class="cls-2" x1="673.29" y1="43.91" x2="666.84" y2="48.2"/><path class="cls-4" d="M559.5,50.35s17.17,45.08-4.29,55.82l6.44,4.29s27.91-19.32,4.29-58C565.94,52.5,563.8,43.91,559.5,50.35Z"/><path class="cls-4" d="M600.29,52.5S579.9,36.74,533.2,98.29c0,0-1.61,2.65,2.68,2,0,0,49.38-52.13,64.4-43.54C600.29,56.79,604.59,56.79,600.29,52.5Z"/><path class="cls-4" d="M443.57,52.5s45.08,27.91,45.08,47.23c0,0,0,8.59-6.44,6.44,0,0-38.64-51.52-42.94-49.38C439.28,56.79,441.43,50.35,443.57,52.5Z"/><path class="cls-4" d="M482.22,50.35s-30.06,60.11-42.94,62.26c0,0-2.15,4.29,6.44,6.44,0,0,53.67-42.94,53.67-51.52C499.39,67.52,499.39,43.91,482.22,50.35Z"/><path class="cls-4" d="M488.66,144.81l6.44,4s-32.6,84-41,82.91c0,0-10.54,5.39-8.39-3.19C445.72,228.54,493,144.81,488.66,144.81Z"/><path class="cls-4" d="M495.1,172.72s8.59,15,0,17.17c0,0-34.35-2.15-49.38,15,0,0-6.44,0,0-8.59C445.72,196.33,480.07,168.42,495.1,172.72Z"/><path class="cls-4" d="M669,97.58v81.58h4.29l.9-80.87S669,86.85,669,97.58Z"/><path class="cls-5" d="M638.94,166.28s12.88-4.29,34.35,19.32c0,0,40.79,19.32,27.91,49.38,0,0-6.44,30.06-40.79,23.62,0,0-27.91-6.44-12.88-40.79,0,0,6.44-23.62,17.17-34.35,0,0,6.44-10.73,17.17-8.59,0,0,19.32,0,19.32,4.29"/><path class="cls-6" d="M669,172.72S690.46,162,677.58,177c0,0,2.15,8.59-12.88,6.44C664.7,183.45,649.67,179.16,669,172.72Z"/><circle class="cls-7" cx="670.15" cy="220.57" r="41.12" transform="translate(-27.81 117.62) rotate(-9.83)"/><rect class="cls-8" x="648.5" y="253.5" width="45" height="114" rx="12" ry="12"/><rect class="cls-8" x="591.5" y="292.5" width="83" height="13" rx="6.5" ry="6.5" transform="translate(57.56 697.69) rotate(-60)"/><rect class="cls-9" x="666.61" y="286.75" width="93.47" height="12.52" rx="6.26" ry="6.26" transform="translate(499.27 -447.86) rotate(51.55)"/><rect class="cls-9" x="631.5" y="354.5" width="22" height="90" rx="11" ry="11" transform="translate(157.1 -180.84) rotate(18.22)"/><g id="Lleg-2" data-name="Lleg"><rect class="cls-9" x="687.5" y="355.5" width="22" height="90" rx="11" ry="11" transform="translate(-70.64 162.31) rotate(-12.62)"/></g></g></svg>